<svg width="92" height="92" viewBox="0 0 92 92" fill="none" xmlns="http://www.w3.org/2000/svg">
<path fill-rule="evenodd" clip-rule="evenodd" d="M92 46C92 71.4051 71.4051 92 46 92C20.5949 92 0 71.4051 0 46C0 20.5949 20.5949 0 46 0C71.4051 0 92 20.5949 92 46ZM54.1849 69.6901H69.455L53.2555 49.1087L68.1936 33.7058H53.2555L40.3755 46.2538V20.4275H27.761V69.6901H40.3755V60.86L44.0934 57.0757L54.1849 69.6901ZM61.1755 33.1959C64.0565 33.1959 66.392 30.8604 66.392 27.9795C66.392 25.0985 64.0565 22.763 61.1755 22.763C58.2945 22.763 55.959 25.0985 55.959 27.9795C55.959 30.8604 58.2945 33.1959 61.1755 33.1959Z" fill="white"/>
</svg>
