<svg width="97" height="34" viewBox="0 0 97 34" fill="none" xmlns="http://www.w3.org/2000/svg">
<path fill-rule="evenodd" clip-rule="evenodd" d="M34 17C34 26.3888 26.3888 34 17 34C7.61116 34 0 26.3888 0 17C0 7.61116 7.61116 0 17 0C26.3888 0 34 7.61116 34 17ZM20.0248 26.1027H25.6681L19.6813 18.4965L25.202 12.8042H19.6813L14.9213 17.4415V7.89696H10.2595V26.1027H14.9213V22.8394L16.2954 21.4409L20.0248 26.1027ZM22.6083 12.268C23.673 12.268 24.5362 11.4048 24.5362 10.3401C24.5362 9.27541 23.673 8.41229 22.6083 8.41229C21.5436 8.41229 20.6805 9.27541 20.6805 10.3401C20.6805 11.4048 21.5436 12.268 22.6083 12.268Z" fill="white"/>
<path d="M44.618 21.02L44.69 17.6L49.208 13.316H52.556L48.218 17.726L46.76 18.914L44.618 21.02ZM42.296 23V9.644H45.104V23H42.296ZM49.514 23L46.238 18.932L48.002 16.754L52.916 23H49.514ZM54.1788 23V13.316H56.9868V23H54.1788ZM55.5828 11.966C55.0668 11.966 54.6468 11.816 54.3228 11.516C53.9988 11.216 53.8368 10.844 53.8368 10.4C53.8368 9.956 53.9988 9.584 54.3228 9.284C54.6468 8.984 55.0668 8.834 55.5828 8.834C56.0988 8.834 56.5188 8.978 56.8428 9.266C57.1668 9.542 57.3288 9.902 57.3288 10.346C57.3288 10.814 57.1668 11.204 56.8428 11.516C56.5308 11.816 56.1108 11.966 55.5828 11.966ZM65.3169 23.144C64.4649 23.144 63.7329 22.964 63.1209 22.604C62.5089 22.244 62.0409 21.698 61.7169 20.966C61.3929 20.222 61.2309 19.286 61.2309 18.158C61.2309 17.018 61.3989 16.082 61.7349 15.35C62.0829 14.618 62.5629 14.072 63.1749 13.712C63.7869 13.352 64.5009 13.172 65.3169 13.172C66.2289 13.172 67.0449 13.376 67.7649 13.784C68.4969 14.192 69.0729 14.768 69.4929 15.512C69.9249 16.256 70.1409 17.138 70.1409 18.158C70.1409 19.166 69.9249 20.042 69.4929 20.786C69.0729 21.53 68.4969 22.112 67.7649 22.532C67.0449 22.94 66.2289 23.144 65.3169 23.144ZM59.5929 23V9.644H62.4009V15.278L62.2209 18.14L62.2749 21.02V23H59.5929ZM64.8309 20.84C65.2989 20.84 65.7129 20.732 66.0729 20.516C66.4449 20.3 66.7389 19.994 66.9549 19.598C67.1829 19.19 67.2969 18.71 67.2969 18.158C67.2969 17.594 67.1829 17.114 66.9549 16.718C66.7389 16.322 66.4449 16.016 66.0729 15.8C65.7129 15.584 65.2989 15.476 64.8309 15.476C64.3629 15.476 63.9429 15.584 63.5709 15.8C63.1989 16.016 62.9049 16.322 62.6889 16.718C62.4729 17.114 62.3649 17.594 62.3649 18.158C62.3649 18.71 62.4729 19.19 62.6889 19.598C62.9049 19.994 63.1989 20.3 63.5709 20.516C63.9429 20.732 64.3629 20.84 64.8309 20.84ZM72.0206 23V9.644H74.8286V23H72.0206ZM77.4347 23V9.644H80.2427V23H77.4347ZM82.8487 23V13.316H85.6567V23H82.8487ZM84.2527 11.966C83.7367 11.966 83.3167 11.816 82.9927 11.516C82.6687 11.216 82.5067 10.844 82.5067 10.4C82.5067 9.956 82.6687 9.584 82.9927 9.284C83.3167 8.984 83.7367 8.834 84.2527 8.834C84.7687 8.834 85.1887 8.978 85.5127 9.266C85.8367 9.542 85.9987 9.902 85.9987 10.346C85.9987 10.814 85.8367 11.204 85.5127 11.516C85.2007 11.816 84.7807 11.966 84.2527 11.966ZM91.5208 23.144C90.6928 23.144 89.8948 23.048 89.1268 22.856C88.3708 22.652 87.7708 22.4 87.3268 22.1L88.2628 20.084C88.7068 20.36 89.2288 20.588 89.8288 20.768C90.4408 20.936 91.0408 21.02 91.6288 21.02C92.2768 21.02 92.7328 20.942 92.9968 20.786C93.2728 20.63 93.4108 20.414 93.4108 20.138C93.4108 19.91 93.3028 19.742 93.0868 19.634C92.8828 19.514 92.6068 19.424 92.2588 19.364C91.9108 19.304 91.5268 19.244 91.1068 19.184C90.6988 19.124 90.2848 19.046 89.8648 18.95C89.4448 18.842 89.0608 18.686 88.7128 18.482C88.3648 18.278 88.0828 18.002 87.8668 17.654C87.6628 17.306 87.5608 16.856 87.5608 16.304C87.5608 15.692 87.7348 15.152 88.0828 14.684C88.4428 14.216 88.9588 13.85 89.6308 13.586C90.3028 13.31 91.1068 13.172 92.0428 13.172C92.7028 13.172 93.3748 13.244 94.0588 13.388C94.7428 13.532 95.3128 13.742 95.7688 14.018L94.8328 16.016C94.3648 15.74 93.8908 15.554 93.4108 15.458C92.9428 15.35 92.4868 15.296 92.0428 15.296C91.4188 15.296 90.9628 15.38 90.6748 15.548C90.3868 15.716 90.2428 15.932 90.2428 16.196C90.2428 16.436 90.3448 16.616 90.5488 16.736C90.7648 16.856 91.0468 16.952 91.3948 17.024C91.7428 17.096 92.1208 17.162 92.5288 17.222C92.9488 17.27 93.3688 17.348 93.7888 17.456C94.2088 17.564 94.5868 17.72 94.9228 17.924C95.2708 18.116 95.5528 18.386 95.7688 18.734C95.9848 19.07 96.0928 19.514 96.0928 20.066C96.0928 20.666 95.9128 21.2 95.5528 21.668C95.1928 22.124 94.6708 22.484 93.9868 22.748C93.3148 23.012 92.4928 23.144 91.5208 23.144Z" fill="white"/>
</svg>
