<svg width="43" height="44" viewBox="0 0 43 44" fill="none" xmlns="http://www.w3.org/2000/svg">
<rect width="43" height="44" rx="10" fill="#9CD880"/>
<path d="M21 12L13.5 15.7363V24.5275C13.5 26.5166 14.2902 28.4243 15.6967 29.8308C17.1032 31.2373 19.0109 32.0275 21 32.0275C22.9891 32.0275 24.8968 31.2373 26.3033 29.8308C27.7098 28.4243 28.5 26.5166 28.5 24.5275V15.7363L21 12ZM25.2687 29.0712L21 26.945V28.3375L24.1475 29.9056C23.1993 30.4579 22.1224 30.7509 21.025 30.7551C19.9277 30.7593 18.8486 30.4745 17.8962 29.9295C16.9438 29.3844 16.1516 28.5982 15.5994 27.65C15.0471 26.7018 14.7541 25.6248 14.75 24.5275V16.5063L21 13.3925L27.25 16.5063V18.85L21 15.7363V17.1288L27.25 20.2425V22.5862L21 19.4725V20.865L27.25 23.9788V24.5275C27.2503 25.0952 27.1725 25.6603 27.0187 26.2069L21 23.2088V24.6013L26.5594 27.3706C26.2296 28.0072 25.7931 28.5824 25.2687 29.0712V29.0712Z" fill="white"/>
</svg>
