<svg width="43" height="44" viewBox="0 0 43 44" fill="none" xmlns="http://www.w3.org/2000/svg">
<rect width="43" height="44" rx="10" fill="#9CD880"/>
<path d="M22.6 21C22.2 20.9 21.8 20.7 21.5 20.4C21.2 20.3 21.1 20 21.1 19.8C21.1 19.6 21.2 19.3 21.4 19.2C21.7 19 22 18.8 22.3 18.9C22.9 18.9 23.4 19.2 23.7 19.6L24.6 18.4C24.3 18.1 24 17.9 23.7 17.7C23.4 17.5 23 17.4 22.6 17.4V16H21.4V17.4C20.9 17.5 20.4 17.8 20 18.2C19.6 18.7 19.3 19.3 19.4 19.9C19.4 20.5 19.6 21.1 20 21.5C20.5 22 21.2 22.3 21.8 22.6C22.1 22.7 22.5 22.9 22.8 23.1C23 23.3 23.1 23.6 23.1 23.9C23.1 24.2 23 24.5 22.8 24.8C22.5 25.1 22.1 25.2 21.8 25.2C21.4 25.2 20.9 25.1 20.6 24.8C20.3 24.6 20 24.3 19.8 24L18.8 25.1C19.1 25.5 19.4 25.8 19.8 26.1C20.3 26.4 20.9 26.7 21.5 26.7V28H22.6V26.5C23.2 26.4 23.7 26.1 24.1 25.7C24.6 25.2 24.9 24.4 24.9 23.7C24.9 23.1 24.7 22.4 24.2 22C23.7 21.5 23.2 21.2 22.6 21ZM22 14C17.6 14 14 17.6 14 22C14 26.4 17.6 30 22 30C26.4 30 30 26.4 30 22C30 17.6 26.4 14 22 14ZM22 28.9C18.2 28.9 15.1 25.8 15.1 22C15.1 18.2 18.2 15.1 22 15.1C25.8 15.1 28.9 18.2 28.9 22C28.9 25.8 25.8 28.9 22 28.9Z" fill="white"/>
</svg>
