<svg width="43" height="44" viewBox="0 0 43 44" fill="none" xmlns="http://www.w3.org/2000/svg">
<rect width="43" height="44" rx="10" fill="#9CD880"/>
<path d="M22.6583 29.5L14.5 21.3417V23.0083C14.5 23.45 14.675 23.875 14.9917 24.1833L21.4833 30.675C22.1333 31.325 23.1917 31.325 23.8417 30.675L29.0167 25.5C29.6667 24.85 29.6667 23.7917 29.0167 23.1417L22.6583 29.5Z" fill="white"/>
<path d="M21.4833 26.5083C21.8083 26.8333 22.2333 27 22.6583 27C23.0833 27 23.5083 26.8333 23.8333 26.5083L29.0083 21.3333C29.6583 20.6833 29.6583 19.625 29.0083 18.975L22.5167 12.4833C22.2083 12.175 21.7833 12 21.3417 12H16.1667C15.25 12 14.5 12.75 14.5 13.6667V18.8417C14.5 19.2833 14.675 19.7083 14.9917 20.0167L21.4833 26.5083ZM16.1667 13.6667H21.3417L27.8333 20.1583L22.6583 25.3333L16.1667 18.8417V13.6667Z" fill="white"/>
<path d="M18.0417 16.5833C18.617 16.5833 19.0833 16.117 19.0833 15.5417C19.0833 14.9664 18.617 14.5 18.0417 14.5C17.4664 14.5 17 14.9664 17 15.5417C17 16.117 17.4664 16.5833 18.0417 16.5833Z" fill="white"/>
</svg>
