<svg width="22" height="22" viewBox="0 0 22 22" fill="none" xmlns="http://www.w3.org/2000/svg">
<path d="M11 0.440002C5.1678 0.440002 0.440002 5.1678 0.440002 11C0.440002 16.8322 5.1678 21.56 11 21.56C16.8322 21.56 21.56 16.8322 21.56 11C21.56 5.1678 16.8322 0.440002 11 0.440002ZM15.2955 9.0904C15.2999 9.1806 15.301 9.2708 15.301 9.3588C15.301 12.1088 13.2099 15.2779 9.3841 15.2779C8.25363 15.2798 7.14667 14.9551 6.1963 14.3429C6.358 14.3627 6.5241 14.3704 6.6924 14.3704C7.667 14.3704 8.5635 14.0393 9.2752 13.4805C8.84149 13.472 8.42124 13.3284 8.07302 13.0697C7.72481 12.811 7.46598 12.4501 7.3326 12.0373C7.64407 12.0965 7.96494 12.0841 8.2709 12.001C7.80016 11.9058 7.37682 11.6507 7.07268 11.279C6.76854 10.9073 6.60232 10.4419 6.6022 9.9616V9.9363C6.8827 10.0914 7.2039 10.186 7.5449 10.197C7.10358 9.90322 6.79117 9.45194 6.67155 8.93545C6.55194 8.41896 6.63416 7.87628 6.9014 7.4184C7.42385 8.0608 8.07539 8.58632 8.81383 8.96094C9.55227 9.33556 10.3611 9.55093 11.1881 9.5931C11.083 9.14684 11.1282 8.67835 11.3168 8.26046C11.5054 7.84257 11.8268 7.49869 12.231 7.28229C12.6352 7.06589 13.0995 6.9891 13.5519 7.06384C14.0042 7.13859 14.4192 7.36068 14.7323 7.6956C15.1978 7.60351 15.6442 7.43276 16.0523 7.1907C15.8972 7.67265 15.5723 8.0819 15.1382 8.3424C15.5505 8.29274 15.9532 8.18189 16.3328 8.0135C16.0539 8.43139 15.7027 8.79608 15.2955 9.0904Z" fill="white"/>
</svg>
