<svg width="43" height="44" viewBox="0 0 43 44" fill="none" xmlns="http://www.w3.org/2000/svg">
<rect width="43" height="44" rx="10" fill="#9CD880"/>
<path d="M15.3333 15.3334V28.6667C15.3333 29.1087 15.5089 29.5326 15.8215 29.8452C16.134 30.1578 16.558 30.3334 17 30.3334H27C27.442 30.3334 27.8659 30.1578 28.1785 29.8452C28.4911 29.5326 28.6666 29.1087 28.6666 28.6667V18.9517C28.6666 18.7297 28.6222 18.5099 28.5361 18.3052C28.4499 18.1006 28.3238 17.9152 28.165 17.76L24.465 14.1417C24.1536 13.8372 23.7355 13.6667 23.3 13.6667H17C16.558 13.6667 16.134 13.8423 15.8215 14.1548C15.5089 14.4674 15.3333 14.8913 15.3333 15.3334V15.3334Z" stroke="white" stroke-width="2" stroke-linecap="round" stroke-linejoin="round"/>
<path d="M23.6666 13.6667V17C23.6666 17.442 23.8422 17.866 24.1548 18.1785C24.4673 18.4911 24.8913 18.6667 25.3333 18.6667H28.6666" stroke="white" stroke-width="2" stroke-linejoin="round"/>
</svg>
